<svg xmlns="http://www.w3.org/2000/svg" viewBox="0 0 152 295"><defs><style>.cls-1{fill:#fff;}</style></defs><title>Asset 1</title><g id="Layer_2" data-name="Layer 2"><g id="Layer_1-2" data-name="Layer 1"><path class="cls-1" d="M132.38,8A11.63,11.63,0,0,1,144,19.62V275.38A11.63,11.63,0,0,1,132.38,287H19.62A11.63,11.63,0,0,1,8,275.38V19.62A11.63,11.63,0,0,1,19.62,8H132.38m0-8H19.62A19.68,19.68,0,0,0,0,19.62V275.38A19.68,19.68,0,0,0,19.62,295H132.38A19.68,19.68,0,0,0,152,275.38V19.62A19.68,19.68,0,0,0,132.38,0Z"/><path class="cls-1" d="M36.5,14a4.5,4.5,0,0,1,0-9h81a4.5,4.5,0,0,1,0,9Z"/><path class="cls-1" d="M117.5,9a.5.5,0,0,1,0,1h-81a.5.5,0,0,1,0-1h81m0-8h-81a8.5,8.5,0,0,0,0,17h81a8.5,8.5,0,0,0,0-17Z"/><polygon points="68 13 64 13 68 13 68 13"/></g></g></svg>