<svg id="Layer_1" data-name="Layer 1" xmlns="http://www.w3.org/2000/svg" viewBox="0 0 350 350"><defs><style>.cls-1{fill:#bf14e2;}.cls-2,.cls-5{fill:none;}.cls-2,.cls-3,.cls-4{stroke:#000;}.cls-2,.cls-3,.cls-4,.cls-5{stroke-miterlimit:10;stroke-width:20px;}.cls-3{fill:#0843ff;}.cls-4{fill:#f20633;}.cls-5{stroke:#c615e5;}</style></defs><title>logo-350-black</title><path class="cls-1" d="M175,340C84,340,10,266,10,175S84,10,175,10,340,84,340,175,266,340,175,340Z"/><path d="M175,20A155,155,0,0,1,284.6,284.6,155,155,0,1,1,65.4,65.4,154,154,0,0,1,175,20m0-20A175,175,0,1,0,350,175,175,175,0,0,0,175,0Z"/><line class="cls-2" x1="173.18" y1="345.55" x2="175.13" y2="4.04"/><path d="M127.84,70.49a10.1,10.1,0,1,1-10.24,10.1,10.18,10.18,0,0,1,10.24-10.1m0-20a30.1,30.1,0,1,0,30.24,30.1,30.17,30.17,0,0,0-30.24-30.1Z"/><path d="M218.84,124.36a9.36,9.36,0,1,1-9.35,9.36,9.37,9.37,0,0,1,9.35-9.36m0-20a29.36,29.36,0,1,0,29.35,29.36,29.36,29.36,0,0,0-29.35-29.36Z"/><line class="cls-2" x1="127.07" y1="103.81" x2="127.35" y2="140.38"/><line class="cls-2" x1="218.6" y1="156.81" x2="218.6" y2="214.2"/><path class="cls-2" d="M218.6,212.18c0,24.13-19,47.69-42.58,47.69"/><path class="cls-2" d="M127.35,138.89c0,24.13,18.86,47.69,42.18,47.69"/><line class="cls-2" x1="87.2" y1="231.58" x2="87.2" y2="319.69"/><rect class="cls-3" x="256.12" y="186.38" width="35.69" height="35.57"/><polygon class="cls-4" points="86.99 237.28 61.76 212.14 86.99 186.99 112.23 212.14 86.99 237.28"/><path class="cls-5" d="M144,228.75"/><path class="cls-5" d="M122.89,228.75"/><line class="cls-2" x1="273.99" y1="231.82" x2="273.5" y2="311"/></svg>